<svg xmlns="http://www.w3.org/2000/svg" version="1.1" xmlns:xlink="http://www.w3.org/1999/xlink" xmlns:svgjs="http://svgjs.dev/svgjs" width="2000" height="1500" viewBox="0 0 2000 1500"><rect width="2000" height="1500" fill="#111111"></rect><g transform="matrix(0.75,0,0,0.75,249.090909090909,282.7536437246963)"><svg xmlns="http://www.w3.org/2000/svg" version="1.1" xmlns:xlink="http://www.w3.org/1999/xlink" xmlns:svgjs="http://svgjs.com/svgjs" viewBox="0 0 396 247" data-background-color="#111111" preserveAspectRatio="xMidYMid meet" height="1247" width="2000"><defs></defs><g id="tight-bounds" transform="matrix(1,0,0,1,0.2400000000000091,-0.09999999999999432)"><svg viewBox="0 0 395.52 247.2" height="247.2" width="395.52"><g><svg xmlns="http://www.w3.org/2000/svg" version="1.1" xmlns:xlink="http://www.w3.org/1999/xlink" xmlns:svgjs="http://svgjs.com/svgjs"></svg></g><g><svg viewBox="0 0 395.52 247.2" height="247.2" width="395.52"><g transform="matrix(3.486975835947173, 0, 0, 3.486975835947173, 124.26480101151715, 1)"><svg xmlns="http://www.w3.org/2000/svg" xmlns:xlink="http://www.w3.org/1999/xlink" version="1.1" x="0" y="0" viewBox="28.922260708346 14.843187499999987 42.154120043403864 70.31881249999999" enable-background="new 0 0 100 100" xml:space="preserve" height="70.31881249999999" width="42.154120043403864" class="icon-none" data-fill-palette-color="accent" id="none"><g fill="#c8ead1" data-fill-palette-color="accent"><path d="M69.982 48.746c-0.002-0.035-0.021-0.062-0.035-0.093-0.01-0.021-0.01-0.045-0.024-0.063-0.026-0.035-0.065-0.056-0.104-0.075-0.015-0.007-0.023-0.022-0.039-0.027-0.001-0.001-0.002 0-0.003 0-0.001-0.001-0.001-0.001-0.002-0.001 0 0-11.184-3.17-15.979-4.526-0.152-0.045-0.312 0.046-0.355 0.198s0.047 0.312 0.199 0.355c4.021 1.138 12.532 3.549 15.177 4.299l-5.244 2.15c-0.029-0.031-0.063-0.057-0.106-0.072-0.342-0.127-8.451-3.133-11.604-3.706-0.206-0.037-0.445-0.064-0.711-0.082 0.361-5.574 2.575-7.101 3.174-7.413 0.405 0.646 2.137 2.997 5.925 2.997l0 0c0.807 0 1.666-0.11 2.552-0.329 0.098-0.023 0.175-0.096 0.205-0.19s0.011-0.198-0.055-0.274c-0.1-0.117-2.391-2.751-6.1-2.979 3.605-1.739 5.766-5.942 6.068-7.72 0.016-0.088-0.012-0.178-0.071-0.243-0.062-0.065-0.147-0.101-0.237-0.092-6.794 0.586-8.198 7.132-8.387 8.241-0.514 0.206-3.261 1.603-3.654 7.979-0.652-0.013-1.418 0.021-2.259 0.093-0.26-5.356 0.254-9.501 1.077-12.664 0.3 0.062 0.602 0.104 0.901 0.104 2.73 0 4.589-2.519 4.667-2.625 0.06-0.083 0.071-0.189 0.031-0.283-0.04-0.093-0.126-0.158-0.227-0.172-0.427-0.057-0.842-0.085-1.234-0.085-1.753 0-2.869 0.556-3.569 1.156 1.578-4.644 3.744-6.636 4.277-7.069 2.563 2.379 5.156 2.986 7.123 2.986 1.786 0 3.057-0.496 3.323-0.609 0.277-0.118 0.448-0.201 0.448-0.409 0-0.071-0.027-0.142-0.075-0.194-2.697-2.955-6.508-3.125-8.819-2.889 4.566-2.861 4.862-9.208 4.866-9.278 0.003-0.089-0.035-0.176-0.104-0.233s-0.163-0.079-0.249-0.058c-6.627 1.546-6.876 8.014-6.794 9.959l0.002 0.056c0.001 0.046 0.015 0.089 0.034 0.128-0.266 0.192-1.529 1.179-2.861 3.461 0.324-3.92-2.896-6.703-2.933-6.734-0.073-0.061-0.171-0.082-0.261-0.059-0.093 0.025-0.165 0.094-0.197 0.184-1.823 5.203 1.736 7.871 2.489 8.365-1.556 3.425-2.9 8.824-2.491 17.018-0.396 0.042-0.803 0.092-1.22 0.148-0.054-5.496-0.58-12.918-2.861-15.785 2.779-3.581 2.284-11.403 0.924-14.375-0.044-0.096-0.137-0.16-0.243-0.167-0.107-0.006-0.205 0.045-0.263 0.135-3.423 5.479-1.94 11.88-1.337 13.899-2.612-0.99-8.106-2.625-11.837-0.622-0.09 0.048-0.147 0.14-0.151 0.24-0.005 0.101 0.044 0.197 0.129 0.253 0.045 0.031 3.369 2.195 7.487 2.194 1.554 0 3.222-0.314 4.869-1.161 2.147 2.752 2.644 10.064 2.696 15.475-0.952 0.145-1.942 0.328-2.925 0.549-0.111-0.939-0.314-1.828-0.665-2.471 3.655-3.054 1.572-8.736 1.48-8.98-0.035-0.092-0.115-0.16-0.212-0.18-0.097-0.021-0.196 0.011-0.265 0.082-2.46 2.549-2.514 5.361-2.179 7.176-0.673-0.742-1.617-1.418-2.796-1.975-3.021-1.431-6.616-1.711-9.165-0.715-0.082 0.033-0.144 0.1-0.17 0.184s-0.013 0.175 0.036 0.247c0.146 0.212 3.646 5.192 12.722 4.351 0.353 0.581 0.55 1.465 0.655 2.41-2.871 0.686-5.61 1.678-7.108 2.894-2.724-1.276-4.844-2.312-5.583-2.764 0.998-0.282 3.85-0.817 5.883-1.159 0.156-0.027 0.262-0.176 0.236-0.332-0.027-0.156-0.177-0.26-0.332-0.235-5.178 0.873-6.267 1.218-6.519 1.438-0.001 0.002-0.004 0.004-0.005 0.005-0.06 0.055-0.07 0.102-0.079 0.148-0.001 0.006-0.002 0.029-0.003 0.041 0 0.004 0 0.008 0 0.012-0.095 1.146 0.332 21.104 0.382 23.409 0.002 0.085 0.042 0.166 0.109 0.22 2.831 2.238 16.955 13.344 18.59 13.344 0.011 0 0.021 0 0.031-0.001C49.619 85 64.293 77.74 68.927 73.675c0.056-0.05 0.091-0.12 0.097-0.194 0.57-7.403 0.956-24.539 0.96-24.712 0-0.004-0.004-0.007-0.004-0.011S69.982 48.75 69.982 48.746zM60.249 42.111L60.249 42.111c-3.164 0-4.759-1.764-5.298-2.52 0.465-0.084 0.932-0.126 1.393-0.126 2.919 0 5.027 1.691 5.822 2.444C61.501 42.044 60.859 42.111 60.249 42.111zM62.268 31.475c-0.58 2.123-3.286 6.727-7.441 7.523C55.103 37.592 56.531 32.199 62.268 31.475zM53.527 32.021c0.203 0 0.413 0.009 0.629 0.025-0.619 0.68-2.051 1.989-3.866 1.989-0.24 0-0.48-0.022-0.721-0.069C49.904 33.363 50.938 32.021 53.527 32.021zM64.356 27.411c-1.147 0.437-5.379 1.636-9.601-2.176C56.149 24.921 61.045 24.116 64.356 27.411zM60.495 15.507c-0.16 1.548-1.077 7.271-5.972 9.119C54.47 22.666 54.834 17.067 60.495 15.507zM48.143 22.462c0.872 0.892 3.174 3.65 2.199 7.134C49.427 28.948 46.871 26.7 48.143 22.462zM44.269 17.98c1.123 3.114 1.436 9.813-0.934 13.097C42.812 29.402 41.259 23.311 44.269 17.98zM31.642 30.739c3.558-1.548 8.589-0.001 10.977 0.913C37.921 33.838 33.104 31.554 31.642 30.739zM43.428 37.221c0.396 1.357 1.283 5.402-1.301 7.746C41.705 43.884 40.686 40.396 43.428 37.221zM29.785 41.352c2.354-0.764 5.644-0.445 8.338 0.83 1.69 0.801 2.904 1.88 3.381 2.994C34.217 45.773 30.688 42.392 29.785 41.352zM48.648 57.081c-0.399-0.177-0.812-0.36-1.23-0.548 1.507-0.954 8.678-5.268 15.245-5.324 0.06 0.021 0.111 0.041 0.163 0.059L48.648 57.081zM45.928 49.796c-0.006 0.472-0.014 0.912-0.023 1.317-1.107 0.445-2.068 0.891-2.853 1.281 0.026-0.354 0.063-0.936 0.074-1.634C43.977 50.434 44.919 50.103 45.928 49.796zM50.523 48.728c0 0.278 0.004 0.563 0.014 0.858-0.697 0.18-1.368 0.375-2.012 0.581-0.033-0.354-0.059-0.695-0.087-1.04C49.119 48.973 49.815 48.837 50.523 48.728zM54.323 48.401c0.341 0.101 0.695 0.207 1.057 0.319-1.49 0.146-2.922 0.401-4.269 0.724-0.008-0.273-0.011-0.54-0.011-0.8 1.025-0.137 2.066-0.218 3.106-0.218C54.248 48.427 54.287 48.418 54.323 48.401zM58.405 49.709c-2.5 0.229-4.987 0.878-7.189 1.641-0.038-0.458-0.064-0.895-0.083-1.318 1.75-0.426 3.646-0.74 5.63-0.838 0.02 0 0.036-0.009 0.055-0.014C57.351 49.354 57.885 49.533 58.405 49.709zM50.563 50.174c0.021 0.428 0.047 0.867 0.086 1.328 0.001 0.017 0.008 0.029 0.012 0.045-1.635 0.592-3.092 1.234-4.255 1.795 0.02-0.408 0.047-1.038 0.07-1.837C47.69 51.031 49.066 50.564 50.563 50.174zM47.964 50.353c-0.512 0.173-1.003 0.351-1.472 0.53 0.01-0.392 0.018-0.813 0.021-1.26 0.442-0.127 0.896-0.249 1.357-0.362C47.901 49.623 47.928 49.98 47.964 50.353zM42.449 52.701c-0.812 0.426-1.358 0.751-1.574 0.885-0.676-0.309-1.346-0.615-2.004-0.916 0.437-0.232 1.776-0.922 3.672-1.681-0.025 0.978-0.092 1.688-0.095 1.707C42.448 52.698 42.449 52.699 42.449 52.701zM45.889 51.74c-0.027 0.928-0.059 1.594-0.074 1.891-1.23 0.613-2.03 1.08-2.216 1.189-0.693-0.312-1.392-0.629-2.088-0.945C42.218 53.461 43.766 52.609 45.889 51.74zM46.156 54.103c0.05-0.011 0.098-0.031 0.133-0.065 3.006-1.48 8.357-3.711 13.535-3.836 0.002 0 0.004-0.002 0.006-0.002 0.518 0.181 1 0.352 1.433 0.505-7.109 0.649-14.38 5.487-14.457 5.54-0.005 0.003-0.007 0.008-0.012 0.012-0.827-0.37-1.682-0.754-2.549-1.145C44.631 54.894 45.291 54.532 46.156 54.103zM51.757 47.751c0.231 0.042 0.493 0.099 0.777 0.167-0.479 0.035-0.954 0.084-1.427 0.146 0.004-0.134 0.01-0.262 0.015-0.392C51.354 47.691 51.568 47.717 51.757 47.751zM50.544 47.646c-0.007 0.162-0.01 0.329-0.014 0.498-0.727 0.11-1.441 0.248-2.14 0.405-0.021-0.278-0.032-0.544-0.048-0.815C49.158 47.662 49.904 47.631 50.544 47.646zM47.768 47.79c0.018 0.296 0.034 0.589 0.056 0.892-0.443 0.107-0.878 0.223-1.304 0.343 0.002-0.347 0.002-0.706 0-1.076C46.946 47.887 47.364 47.834 47.768 47.79zM45.935 48.037c0.001 0.4 0.001 0.785-0.002 1.158-1.005 0.302-1.947 0.628-2.804 0.951-0.004-0.496-0.022-1.024-0.064-1.553C44.024 48.373 44.996 48.186 45.935 48.037zM42.501 48.728c0.04 0.56 0.053 1.122 0.052 1.642-2.47 0.974-4.084 1.863-4.119 1.883-0.064 0.035-0.105 0.093-0.129 0.156-0.822-0.378-1.621-0.748-2.38-1.103C37.335 50.277 39.843 49.378 42.501 48.728zM29.494 48.715c2.424 1.5 12.499 6.042 18.877 8.873 0.071 1.879-0.326 19.916-0.493 26.975-1.574-0.441-11.7-8.148-17.985-13.115C29.766 65.602 29.479 51.506 29.494 48.715zM68.459 73.318c-4.374 3.777-16.16 9.65-19.594 10.986l13.118-22.16c0.08-0.137 0.035-0.314-0.101-0.395-0.137-0.082-0.313-0.037-0.396 0.101L48.47 83.842c0.108-4.621 0.548-23.793 0.472-26.26l20.023-8.209-4.403 6.908c-0.085 0.133-0.046 0.311 0.089 0.396 0.133 0.085 0.311 0.047 0.396-0.088l4.337-6.803C69.291 53.593 68.941 66.938 68.459 73.318z" fill="#c8ead1" data-fill-palette-color="accent"></path><path d="M58.783 23.102c-0.068 0.136-0.021 0.299 0.106 0.377 0.032 0.053 0.081 0.096 0.144 0.119 1.385 0.53 2.695 0.795 3.924 0.795 1.185 0 2.291-0.246 3.314-0.74 3.387-1.633 4.598-5.354 4.647-5.512 0.025-0.079 0.015-0.166-0.028-0.236-0.044-0.071-0.116-0.12-0.198-0.134-4.366-0.736-7.369 0.75-9.121 2.125C59.673 21.387 58.819 23.033 58.783 23.102zM66.021 23.135c-1.619 0.781-3.485 0.886-5.559 0.322 1.958-0.131 5.792-0.83 9.224-3.986C69.029 20.654 67.865 22.246 66.021 23.135zM61.946 20.334c2.288-1.789 5.027-2.478 8.143-2.066-4.12 4.389-9.154 4.658-10.521 4.644C59.946 22.332 60.724 21.289 61.946 20.334z" fill="#c8ead1" data-fill-palette-color="accent"></path><path d="M36.376 28.191c2.41 1.162 4.757 1.317 4.855 1.323 0.005 0 0.012 0.001 0.018 0.001 0.005 0 0.009 0 0.011 0 0.16 0 0.288-0.129 0.288-0.288 0-0.042-0.009-0.081-0.023-0.116-1.119-8.314-9.813-8.799-9.901-8.803-0.077-0.008-0.156 0.025-0.213 0.082-0.059 0.055-0.089 0.133-0.087 0.212C31.403 24.012 33.151 26.637 36.376 28.191zM32.195 22.684c1.383 2.354 4.745 4.762 7.174 5.941-0.807-0.189-1.78-0.485-2.758-0.959C34.265 26.53 32.789 24.857 32.195 22.684zM40.859 28.628c-2.831-0.924-8.381-4.899-8.705-7.686C33.975 21.193 39.709 22.471 40.859 28.628z" fill="#c8ead1" data-fill-palette-color="accent"></path><path d="M70.957 37.194c-1.345-0.974-3.189-1.511-5.195-1.511-2.626 0-5.179 0.928-6.502 2.363-0.058 0.062-0.085 0.146-0.074 0.231 0.012 0.085 0.059 0.16 0.131 0.206 1.798 1.145 3.961 1.774 6.093 1.774 2.712 0 4.874-1.039 5.641-2.712C71.107 37.423 71.068 37.274 70.957 37.194zM70.303 37.451c-1.678 0.619-4.548 1.301-10.198 0.597 1.3-1.097 3.439-1.789 5.657-1.789C67.494 36.259 69.087 36.682 70.303 37.451zM61.005 38.732c1.339 0.139 2.512 0.199 3.542 0.199 2.442 0 4.088-0.334 5.323-0.727-0.941 0.926-2.538 1.479-4.461 1.479C63.905 39.684 62.387 39.348 61.005 38.732z" fill="#c8ead1" data-fill-palette-color="accent"></path></g></svg></g><rect width="348.05760000000004" height="75.8046406072155" fill="#111111" y="85.69767969639224" x="23.731199999999973" data-fill-palette-color="quaternary"></rect><g transform="matrix(1,0,0,1,39.55199999999999,97.8537996731263)"><svg viewBox="0 0 316.416 51.492400653747374" height="51.492400653747374" width="316.416"><g><svg viewBox="0 0 316.416 51.492400653747374" height="51.492400653747374" width="316.416"><g><svg viewBox="0 0 316.416 51.492400653747374" height="51.492400653747374" width="316.416"><g><svg viewBox="0 0 316.416 51.492400653747374" height="51.492400653747374" width="316.416"><g><svg viewBox="0 0 316.416 51.492400653747374" height="51.492400653747374" width="316.416"><g><svg viewBox="0 0 316.416 51.492400653747374" height="51.492400653747374" width="316.416"><g transform="matrix(1,0,0,1,0,0)"><svg width="316.416" viewBox="2.95 -33.9 214.12 34.85" height="51.492400653747374" data-palette-color="#c8eae2"><path d="M11.85 0Q10.15 0 10.15-8.25L10.15-8.25 10.2-11.1 10.25-13.4 10.25-13.55 10.25-14.05Q10.3-14.45 10.3-15L10.3-15Q10.3-15.1 10.15-15.25L10.15-15.25Q10-15.4 10-15.5L10-15.5 10-15.55Q9.75-15.45 9.1-15.45L9.1-15.45Q8.45-15.45 7.5-15.65L7.5-15.65Q7.2-15.7 5.9-15.9L5.9-15.9 5.9-10.15Q5.9-8.85 6.05-6.05L6.05-6.05Q6.2-3.3 6.2-1.95L6.2-1.95Q6.2-1.2 5.8-0.65 5.4-0.1 4.75-0.1L4.75-0.1Q3.8-0.1 3.4-1.95L3.4-1.95Q3-3.85 3-6.9L3-6.9 3.1-10.95Q3.15-12.65 3.15-14.55L3.15-14.55 3.15-15.4 3.15-16.1Q3.15-16.9 3.1-17.15L3.1-17.15 3.1-17.4 3.25-20.3Q3.25-22.2 3.1-25.95L3.1-25.95Q2.95-29.7 2.95-31.6L2.95-31.6Q2.95-32.2 3.35-32.65 3.75-33.1 4.35-33.1L4.35-33.1Q5.95-33.1 5.95-30.1L5.95-30.1 5.85-23.9Q5.75-21.1 5.75-17.65L5.75-17.65Q6.5-17.4 8.45-17.4L8.45-17.4 10.3-17.4Q10.4-17.7 10.4-18L10.4-18Q10.4-20.4 10.1-25.1L10.1-25.1Q9.75-29.5 9.75-32.25L9.75-32.25Q9.75-32.8 10.18-33.18 10.6-33.55 11.2-33.55L11.2-33.55Q11.55-33.55 12.2-33.3L12.2-33.3 12.65-33.1Q12.65-26 13.15-14.15L13.15-14.15 13.6-1.5Q13.6-0.8 13.08-0.4 12.55 0 11.85 0L11.85 0ZM25.45 0.95Q24.15 0.95 23.05 0.13 21.95-0.7 21.25-2.1L21.25-2.1Q19.8-5.15 19.45-8.75L19.45-8.75Q19-12.15 19-15.3L19-15.3Q19-15.9 19.05-16.3L19.05-16.3 19.05-17.2Q19.05-17.45 19-17.45L19-17.45 19-18.35 19.05-21.85Q19.1-23.45 19.45-26.95L19.45-26.95Q19.7-29.35 20.6-31.6L20.6-31.6Q20.95-32.6 21.5-33.13 22.05-33.65 22.75-33.65L22.75-33.65Q24.75-33.65 26.35-32.93 27.95-32.2 29.05-30.9L29.05-30.9Q30.05-29.65 30.75-27.83 31.45-26 31.75-23.95L31.75-23.95Q32.05-21.85 32.05-19.5L32.05-19.5 32.05-19.1Q32.05-17.55 32.1-16.3L32.1-16.3 32.15-13.45Q32.15 0.95 25.45 0.95L25.45 0.95ZM25.25-1.15Q26.15-1.15 26.9-1.88 27.65-2.6 28.05-3.85L28.05-3.85Q29-6.4 29.2-9.35L29.2-9.35Q29.45-11.9 29.45-13.75L29.45-13.75Q29.45-16 29.1-19.65L29.1-19.65Q28.8-23.5 28.8-25.4L28.8-25.4 28.8-26.3Q28.7-28.2 27.52-29.6 26.35-31 24.65-31L24.65-31Q22.95-31 22.4-29.05L22.4-29.05Q21.9-27.5 21.9-25.05L21.9-25.05Q21.9-24.1 21.95-23.45L21.95-23.45 21.95-22.1 21.85-19.8Q21.75-18.75 21.75-17.5L21.75-17.5Q21.75-14.8 21.9-12.15L21.9-12.15Q22.1-8.4 22.9-4.85L22.9-4.85Q23.7-1.15 25.25-1.15L25.25-1.15ZM42.95 0.75Q41.75 0.75 40.8 0.23 39.84-0.3 39.25-1.3L39.25-1.3Q38.05-3.4 37.7-6.05L37.7-6.05Q37.34-8.35 37.34-11.55L37.34-11.55Q37.2-16.95 37.2-24.75L37.2-24.75 37.15-28.6Q37.09-28.9 37.09-29.6L37.09-29.6Q37-31.5 37-31.9L37-31.9Q37.45-32.95 38.05-32.95L38.05-32.95Q38.65-32.95 39.12-32.05 39.59-31.15 39.59-30.1L39.59-30.1 39.59-16.5Q39.59-14.5 39.95-11.2L39.95-11.2Q40.3-7.1 40.3-5.9L40.3-5.9Q40.3-2.2 43.45-2.2L43.45-2.2Q47.05-2.2 47.05-29.1L47.05-29.1 47.05-31.9 47.05-32.35Q47-32.5 47-32.75L47-32.75Q47-33.35 47.27-33.63 47.55-33.9 48.34-33.9L48.34-33.9Q49-33.9 49.37-33.52 49.75-33.15 49.84-32.65L49.84-32.65Q49.9-32.35 49.9-31.5L49.9-31.5Q49.9-30.7 49.75-28.95L49.75-28.95Q49.55-27.5 49.55-26.45L49.55-26.45Q49.55-25.3 49.45-24.4L49.45-24.4 49.34-22.3 49.34-21.9Q49.4-21.7 49.4-21.45L49.4-21.45Q49.4 0.75 42.95 0.75L42.95 0.75ZM56.54 0.7Q55.64 0.55 55.02 0.05 54.39-0.45 54.29-1.25L54.29-1.25 54.84-2.1Q55.14-2.1 55.79-1.9L55.79-1.9Q56.54-1.75 56.94-1.75L56.94-1.75Q57.84-1.75 58.57-2.55 59.29-3.35 59.64-4.65L59.64-4.65Q60.29-7.05 60.29-8.95L60.29-8.95Q60.29-12.25 58.19-15.9L58.19-15.9 57.64-16.85Q56.69-18.5 56.04-19.8 55.39-21.1 54.94-22.6L54.94-22.6Q54.34-24.55 54.34-26.5L54.34-26.5Q54.34-28.7 55.34-31.1L55.34-31.1Q55.84-32.25 56.77-32.98 57.69-33.7 58.84-33.7L58.84-33.7Q59.74-33.7 60.52-33.13 61.29-32.55 61.29-31.75L61.29-31.75Q61.29-31.3 60.94-31.05 60.59-30.8 60.09-30.8L60.09-30.8Q59.54-30.8 59.04-31.1L59.04-31.1Q57.94-31.05 57.29-29.15L57.29-29.15Q56.74-27.4 56.74-26.25L56.74-26.25Q56.74-24.8 57.19-23.33 57.64-21.85 58.34-20.65L58.34-20.65 59.44-18.65 61.19-15.35Q61.89-13.95 62.32-12.1 62.74-10.25 62.74-8.35L62.74-8.35Q62.74-5.3 61.34-2.55L61.34-2.55Q60.64-1.15 59.37-0.3 58.09 0.55 56.54 0.55L56.54 0.55 56.54 0.7ZM70.29 0.65Q69.64 0.65 69.11 0.2 68.59-0.25 68.54-0.9L68.54-0.9 68.54-2.2 68.54-3.2Q68.49-3.65 68.49-4.25L68.49-4.25Q68.49-5.3 68.34-7.45L68.34-7.45 68.24-10.65Q68.24-13.1 68.39-17.95L68.39-17.95Q68.59-22.3 68.59-25.25L68.59-25.25Q68.59-25.95 68.44-27.35L68.44-27.35Q68.29-28.8 68.29-29.45L68.29-29.45Q68.29-33 70.39-33L70.39-33Q72.04-33 74.22-32.35 76.39-31.7 76.39-30.8L76.39-30.8Q76.39-30.3 75.97-29.88 75.54-29.45 74.94-29.2L74.94-29.2Q72.84-29.95 71.14-30.2L71.14-30.2Q71.19-29.45 71.19-28.05L71.19-28.05Q71.19-26.05 71.14-24.45L71.14-24.45Q70.99-22.05 70.99-20.85L70.99-20.85 71.14-20.05 71.94-20.1Q72.34-20.15 72.94-20.15L72.94-20.15Q75.34-20.15 75.34-18.75L75.34-18.75Q75.34-18.2 74.89-17.82 74.44-17.45 73.74-17.45L73.74-17.45Q72.84-17.45 72.34-17.55L72.34-17.55 71.09-17.55Q71.19-16.25 71.19-13.75L71.19-13.75Q71.19-11.25 71.14-9.25L71.14-9.25Q70.99-6.2 70.99-4.7L70.99-4.7Q70.99-1.9 71.09-1.9L71.09-1.9 72.74-1.95Q73.59-2 74.79-2L74.79-2Q76.69-2 76.69-0.8L76.69-0.8Q76.69-0.1 76.06 0.28 75.44 0.65 74.54 0.65L74.54 0.65 70.29 0.65ZM97.19 0.95Q95.89 0.95 94.79 0.13 93.69-0.7 92.99-2.1L92.99-2.1Q91.54-5.15 91.19-8.75L91.19-8.75Q90.74-12.15 90.74-15.3L90.74-15.3Q90.74-15.9 90.79-16.3L90.79-16.3 90.79-17.2Q90.79-17.45 90.74-17.45L90.74-17.45 90.74-18.35 90.79-21.85Q90.84-23.45 91.19-26.95L91.19-26.95Q91.44-29.35 92.34-31.6L92.34-31.6Q92.69-32.6 93.24-33.13 93.79-33.65 94.49-33.65L94.49-33.65Q96.49-33.65 98.09-32.93 99.69-32.2 100.79-30.9L100.79-30.9Q101.79-29.65 102.49-27.83 103.19-26 103.49-23.95L103.49-23.95Q103.79-21.85 103.79-19.5L103.79-19.5 103.79-19.1Q103.79-17.55 103.84-16.3L103.84-16.3 103.89-13.45Q103.89 0.95 97.19 0.95L97.19 0.95ZM96.99-1.15Q97.89-1.15 98.64-1.88 99.39-2.6 99.79-3.85L99.79-3.85Q100.74-6.4 100.94-9.35L100.94-9.35Q101.19-11.9 101.19-13.75L101.19-13.75Q101.19-16 100.84-19.65L100.84-19.65Q100.54-23.5 100.54-25.4L100.54-25.4 100.54-26.3Q100.44-28.2 99.26-29.6 98.09-31 96.39-31L96.39-31Q94.69-31 94.14-29.05L94.14-29.05Q93.64-27.5 93.64-25.05L93.64-25.05Q93.64-24.1 93.69-23.45L93.69-23.45 93.69-22.1 93.59-19.8Q93.49-18.75 93.49-17.5L93.49-17.5Q93.49-14.8 93.64-12.15L93.64-12.15Q93.84-8.4 94.64-4.85L94.64-4.85Q95.44-1.15 96.99-1.15L96.99-1.15ZM110.38 0.45Q109.63 0.45 108.58-0.3L108.58-0.3Q108.98-4.45 109.23-13.05L109.23-13.05Q109.48-22 109.58-23.8L109.58-23.8 109.58-25Q109.78-29.9 109.78-31.8L109.78-31.8Q109.78-32.5 110.36-32.9 110.93-33.3 111.68-33.3L111.68-33.3Q113.43-33.3 115.43-33L115.43-33Q116.73-32.8 117.51-32.35 118.28-31.9 118.28-31.25L118.28-31.25Q118.28-29.85 115.73-29.85L115.73-29.85Q114.78-30.35 113.13-30.35L113.13-30.35 112.53-30.35 112.53-29.75Q112.53-27.8 112.33-24.8L112.33-24.8Q112.08-22 112.08-19.75L112.08-19.75 112.08-18.4 112.48-18.4 112.98-18.4Q115.43-18.4 115.43-17.1L115.43-17.1Q115.43-16.45 114.91-16.05 114.38-15.65 113.63-15.65L113.63-15.65Q112.43-15.65 111.68-15.9L111.68-15.9 111.68-1.75Q111.68 0.45 110.38 0.45L110.38 0.45ZM132.98 0.95L131.93 0.35Q131.28-2.3 131.28-7L131.28-7 131.38-11.45Q131.48-13.45 131.48-15.9L131.48-15.9Q131.18-16.6 131.18-17.15L131.18-17.15 131.18-17.3Q131.68-18.25 131.68-21.6L131.68-21.6 131.73-23.9Q131.78-25 131.78-26.35L131.78-26.35Q131.78-29.3 131.38-31L131.38-31Q131.53-31.7 131.88-32.23 132.23-32.75 132.73-32.75L132.73-32.75 134.93-32.75Q136.33-32.75 137.38-32.13 138.43-31.5 138.98-30.35L138.98-30.35Q139.98-28.3 139.98-25.5L139.98-25.5Q139.98-23.5 139.93-22.35L139.93-22.35Q139.83-20.9 139.43-19.7L139.43-19.7Q139.28-19.05 139-18.63 138.73-18.2 138.23-17.6L138.23-17.6Q137.53-16.75 135.93-16L135.93-16Q135.28-15.65 134.23-15.35L134.23-15.35 134.23-10 134.33-6.8 134.43-5.25Q134.63-2.45 134.63-0.5L134.63-0.5Q134.63 0.1 134.13 0.53 133.63 0.95 132.98 0.95L132.98 0.95ZM134.28-17.4Q137.23-17.85 137.23-25.85L137.23-25.85Q137.23-27.3 137.08-28.1L137.08-28.1Q136.93-28.7 136.68-29.08 136.43-29.45 135.93-29.7L135.93-29.7Q135.38-30 134.73-30L134.73-30Q134.73-30.05 134.18-30.05L134.18-30.05 134.18-27.2Q134.18-24.25 134.23-21.95L134.23-21.95Q134.23-19.35 134.28-18.55L134.28-18.55 134.28-17.5 134.28-17.4ZM152.58 0.8Q150.78 0.2 148.13 0.2L148.13 0.2Q147.33 0.7 146.43 0.7L146.43 0.7Q145.83 0.7 145.4 0.18 144.98-0.35 144.98-0.95L144.98-0.95Q144.98-5.15 145.33-12.15L145.33-12.15Q145.63-19.6 145.63-23.3L145.63-23.3 145.63-23.65Q145.33-26.8 145.33-28.35L145.33-28.35Q145.33-33.1 147.08-33.1L147.08-33.1Q147.58-33.1 147.95-32.73 148.33-32.35 148.33-31.85L148.33-31.85Q148.33-31.25 148.18-29.95L148.18-29.95Q148.03-28.7 148.03-28.05L148.03-28.05Q148.03-24.7 148.08-22L148.08-22Q148.13-19.35 148.13-16L148.13-16Q147.88-15.25 147.88-13.9L147.88-13.9 147.88-13.3 147.78-9.35Q147.68-7.6 147.68-5.35L147.68-5.35Q147.68-1.9 149.33-1.9L149.33-1.9Q149.43-1.9 149.65-1.93 149.88-1.95 150.28-1.95L150.28-1.95Q150.73-2 151.43-2L151.43-2Q154.13-2 154.13-0.5L154.13-0.5Q154.13 0 153.68 0.35 153.23 0.7 152.58 0.8L152.58 0.8ZM168.12 0.45Q166.97 0.45 166.42 0.1 165.87-0.25 165.87-1.2L165.87-1.2Q165.87-2.7 165.37-6.3L165.37-6.3 165.17-7.35 160.22-8.1Q159.92-6.95 159.37-3.45L159.37-3.45Q159.07-1 158.42-0.2L158.42-0.2Q158.07 0.25 157.42 0.25L157.42 0.25Q156.82 0.25 156.32-0.13 155.82-0.5 155.82-1.05L155.82-1.05 155.92-1.3 155.97-1.5Q159.27-14.35 160.97-26.85L160.97-26.85Q160.97-27.05 161.02-27.53 161.07-28 161.12-28.9L161.12-28.9Q161.27-30.75 161.45-31.85 161.62-32.95 162.02-33.5L162.02-33.5 163.72-33.5Q164.42-33.5 164.92-33.18 165.42-32.85 165.42-32.25L165.42-32.25Q165.42-28.45 166.47-20.95L166.47-20.95Q167.47-13.25 167.47-10.15L167.47-10.15Q167.47-9.85 167.72-8.6L167.72-8.6Q167.97-7.45 167.97-7.1L167.97-7.1Q167.97-6.75 168.47-4.1L168.47-4.1Q168.92-1.7 168.92-1L168.92-1 168.92-0.95Q168.92 0.15 168.12 0.45L168.12 0.45ZM164.82-9.15Q164.67-9.9 164.67-11L164.67-11Q164.67-15.5 163.87-22.5L163.87-22.5 163.37-27.7Q161.22-15.95 160.42-9.95L160.42-9.95Q161.17-9.45 164.82-9.15L164.82-9.15ZM186.87 0.15Q186.27 0.15 185.97-0.18 185.67-0.5 185.52-1.3L185.52-1.3 185.22-2.25 185.22-2.35 185.22-2.5Q185.22-4.15 181.8-13.75 178.37-23.35 176.42-27.95L176.42-27.95 176.42-2.8 176.62-2.45Q176.67-2.35 176.82-2.1 176.97-1.85 176.97-1.6L176.97-1.6Q176.97-0.95 176.52-0.5 176.07-0.05 175.42-0.05L175.42-0.05Q173.82-0.05 173.82-3.1L173.82-3.1 173.77-11.65Q173.72-15.5 173.72-20.25L173.72-20.25Q173.72-21.85 173.87-24.9L173.87-24.9Q174.02-28.05 174.02-29.55L174.02-29.55Q174.02-31.9 175.82-33.25L175.82-33.25 175.82-32.95Q176.12-33.05 176.22-33.05L176.22-33.05Q177.37-33.05 179.12-29.05L179.12-29.05Q180.52-25.85 181.65-22.3 182.77-18.75 184.62-12.2L184.62-12.2 185.12-10.4Q186.27-6.35 186.87-4.6L186.87-4.6Q187.87-15.35 187.87-30L187.87-30 187.87-30.65Q187.82-30.95 187.82-31.3L187.82-31.3Q187.82-32.8 189.02-32.8L189.02-32.8Q189.72-32.8 190.1-32.25 190.47-31.7 190.47-30.85L190.47-30.85 190.47-27.1Q190.37-19.4 189.87-10.4 189.37-1.4 188.67-0.25L188.67-0.25Q187.22 0.15 186.87 0.15L186.87 0.15ZM200.87-0.15L199.97-0.8 199.92-2.75Q199.87-3.6 199.87-4.65L199.87-4.65 199.92-6.35Q199.77-6.9 199.17-17.3 198.57-27.7 198.47-30.65L198.47-30.65Q195.57-30.75 194.77-31.25L194.77-31.25Q194.22-31.65 194.22-32.15L194.22-32.15Q194.22-32.55 194.74-32.88 195.27-33.2 195.82-33.2L195.82-33.2Q197.22-33.2 199.22-33L199.22-33Q201.12-32.75 202.62-32.75L202.62-32.75 203.02-32.75 203.42-32.75Q204.97-32.75 204.97-31.55L204.97-31.55Q204.97-30.95 204.47-30.58 203.97-30.2 203.32-30.2L203.32-30.2Q202.87-30.2 202.02-30.35L202.02-30.35 201.02-30.55 200.97-30.3 200.92-30.05Q200.92-25.6 201.77-15.85L201.77-15.85Q202.57-6.7 202.57-1.65L202.57-1.65Q202.57-1.05 202.04-0.6 201.52-0.15 200.87-0.15L200.87-0.15ZM210.87 0.7Q209.97 0.55 209.34 0.05 208.72-0.45 208.62-1.25L208.62-1.25 209.17-2.1Q209.47-2.1 210.12-1.9L210.12-1.9Q210.87-1.75 211.27-1.75L211.27-1.75Q212.17-1.75 212.89-2.55 213.62-3.35 213.97-4.65L213.97-4.65Q214.62-7.05 214.62-8.95L214.62-8.95Q214.62-12.25 212.52-15.9L212.52-15.9 211.97-16.85Q211.02-18.5 210.37-19.8 209.72-21.1 209.27-22.6L209.27-22.6Q208.67-24.55 208.67-26.5L208.67-26.5Q208.67-28.7 209.67-31.1L209.67-31.1Q210.17-32.25 211.09-32.98 212.02-33.7 213.17-33.7L213.17-33.7Q214.07-33.7 214.84-33.13 215.62-32.55 215.62-31.75L215.62-31.75Q215.62-31.3 215.27-31.05 214.92-30.8 214.42-30.8L214.42-30.8Q213.87-30.8 213.37-31.1L213.37-31.1Q212.27-31.05 211.62-29.15L211.62-29.15Q211.07-27.4 211.07-26.25L211.07-26.25Q211.07-24.8 211.52-23.33 211.97-21.85 212.67-20.65L212.67-20.65 213.77-18.65 215.52-15.35Q216.22-13.95 216.64-12.1 217.07-10.25 217.07-8.35L217.07-8.35Q217.07-5.3 215.67-2.55L215.67-2.55Q214.97-1.15 213.69-0.3 212.42 0.55 210.87 0.55L210.87 0.55 210.87 0.7Z" opacity="1" transform="matrix(1,0,0,1,0,0)" fill="#c8eae2" class="undefined-text-0" data-fill-palette-color="primary" id="text-0"></path></svg></g></svg></g></svg></g></svg></g><g></g></svg></g></svg></g></svg></g></svg></g></svg><rect width="395.52" height="247.2" fill="none" stroke="none" visibility="hidden"></rect></g></svg></g></svg>